#!OML:ASF H:\Dans Jumps\Project 1\Capture day 1\Session 1\subject.ASF
:FULLY-SPECIFIED
:DEGREES
105
root 0.460256 17.5316 -14.1579 6.22151 -0.906161 -1.53721
lowerback -1.73339 -0.282372 -0.0641624
upperback 3.38081 -0.434868 1.50997
thorax 4.46925 -0.247424 1.57036
lowerneck -13.951 -0.331276 -2.67938
upperneck 28.4543 -0.490961 2.41821
head 11.5912 -0.209135 1.28695
rclavicle -5.41688e-015 -7.95139e-015
rhumerus -22.2036 -18.7274 -79.9925
rradius 22.4044
rwrist 35.925
rhand -17.501 -26.0045
rfingers 7.12502
rthumb 8.75192 -55.8031
lclavicle -5.41688e-015 -7.95139e-015
lhumerus -19.8985 5.47207 85.4584
lradius 17.0899
lwrist -2.19675
lhand -23.6472 -2.73681
lfingers 7.12502
lthumb 2.81804 27.2243
rfemur -13.4887 -2.09384 19.3116
rtibia 21.7228
rfoot -13.5214 -3.33119
rtoes 6.54527
lfemur -12.9501 7.22283 -17.8828
ltibia 20.232
lfoot -11.3603 4.90512
ltoes -0.461676
106
root 0.459833 17.5315 -14.1587 6.22278 -0.900392 -1.53493
lowerback -1.72803 -0.28241 -0.0637925
upperback 3.38295 -0.434814 1.50738
thorax 4.4684 -0.24734 1.5675
lowerneck -13.9538 -0.329921 -2.67854
upperneck 28.4565 -0.488755 2.41691
head 11.5926 -0.208197 1.28667
rclavicle -6.95746e-016 -2.78299e-015
rhumerus -22.1975 -18.7103 -80.008
rradius 22.4133
rwrist 35.9134
rhand -17.4914 -26.014
rfingers 7.12502
rthumb 8.76114 -55.8121
lclavicle -6.95746e-016 -2.78299e-015
lhumerus -19.888 5.46523 85.4584
lradius 17.1015
lwrist -2.18452
lhand -23.6657 -2.76553
lfingers 7.12502
lthumb 2.80026 27.1958
rfemur -13.4975 -2.09678 19.31
rtibia 21.736
rfoot -13.5283 -3.32765
rtoes 6.5793
lfemur -12.9576 7.224 -17.8839
ltibia 20.2375
lfoot -11.3654 4.89707
ltoes -0.440622
107
root 0.459449 17.5314 -14.1597 6.22458 -0.893156 -1.53346
lowerback -1.72077 -0.283531 -0.0619513
upperback 3.38396 -0.43627 1.50571
thorax 4.46533 -0.24796 1.56468
lowerneck -13.9529 -0.327978 -2.67924
upperneck 28.4557 -0.485001 2.41442
head 11.592 -0.206887 1.28638
rclavicle -2.03754e-015 -2.04748e-014
rhumerus -22.1913 -18.6888 -80.0243
rradius 22.4219
rwrist 35.9015
rhand -17.4875 -26.0187
rfingers 7.12502
rthumb 8.7649 -55.8167
lclavicle -2.03754e-015 -2.04748e-014
lhumerus -19.8791 5.46577 85.457
lradius 17.1102
lwrist -2.17733
lhand -23.6819 -2.77646
lfingers 7.12502
lthumb 2.7846 27.1851
rfemur -13.5083 -2.10308 19.3096
rtibia 21.7496
rfoot -13.5343 -3.324
rtoes 6.60408
lfemur -12.9678 7.22636 -17.8844
ltibia 20.2453
lfoot -11.3705 4.88625
ltoes -0.419258
108
root 0.459057 17.5313 -14.1608 6.22628 -0.885186 -1.53312
lowerback -1.70959 -0.284813 -0.0584564
upperback 3.38301 -0.437965 1.50446
thorax 4.45799 -0.248627 1.56136
lowerneck -13.9477 -0.326173 -2.67843
upperneck 28.4537 -0.48105 2.40894
head 11.59 -0.205715 1.28472
rclavicle -7.30534e-015 1.11319e-014
rhumerus -22.1887 -18.6625 -80.0409
rradius 22.4325
rwrist 35.8859
rhand -17.4887 -26.0188
rfingers 7.12502
rthumb 8.76374 -55.8168
lclavicle -7.30534e-015 1.11319e-014
lhumerus -19.8742 5.46685 85.4548
lradius 17.1187
lwrist -2.1701
lhand -23.6975 -2.77576
lfingers 7.12502
lthumb 2.76953 27.186
rfemur -13.5191 -2.10787 19.3103
rtibia 21.7632
rfoot -13.5402 -3.32023
rtoes 6.6392
lfemur -12.9807 7.22909 -17.8835
ltibia 20.2566
lfoot -11.3745 4.87552
ltoes -0.405661
109
root 0.458611 17.5311 -14.1619 6.22828 -0.875557 -1.53423
lowerback -1.69695 -0.286804 -0.0545015
upperback 3.38213 -0.440678 1.50489
thorax 4.44993 -0.249816 1.55946
lowerneck -13.9405 -0.323652 -2.677
upperneck 28.4475 -0.475316 2.4004
head 11.5859 -0.20405 1.282
rclavicle -2.28602e-015 1.0138e-014
rhumerus -22.1847 -18.6329 -80.0575
rradius 22.4434
rwrist 35.8661
rhand -17.4947 -26.0128
rfingers 7.12502
rthumb 8.758 -55.8111
lclavicle -2.28602e-015 1.0138e-014
lhumerus -19.8682 5.47012 85.4532
lradius 17.1247
lwrist -2.16628
lhand -23.7101 -2.7649
lfingers 7.12502
lthumb 2.75731 27.197
rfemur -13.53 -2.10987 19.3127
rtibia 21.777
rfoot -13.5469 -3.31854
rtoes 6.68965
lfemur -12.9972 7.23229 -17.8811
ltibia 20.2719
lfoot -11.3785 4.86387
ltoes -0.403906
110
root 0.458156 17.5308 -14.1632 6.22913 -0.864249 -1.53509
lowerback -1.68095 -0.289192 -0.0507563
upperback 3.3811 -0.443913 1.5061
thorax 4.43983 -0.251278 1.55848
lowerneck -13.9304 -0.321205 -2.67455
upperneck 28.4373 -0.468875 2.38814
head 11.5797 -0.202417 1.27778
rclavicle -7.95139e-016 -1.19271e-014
rhumerus -22.1813 -18.6046 -80.0728
rradius 22.4547
rwrist 35.8475
rhand -17.5014 -26.0091
rfingers 7.12502
rthumb 8.75155 -55.8077
lclavicle -7.95139e-016 -1.19271e-014
lhumerus -19.8638 5.46916 85.454
lradius 17.1315
lwrist -2.15995
lhand -23.713 -2.74529
lfingers 7.12502
lthumb 2.75456 27.2167
rfemur -13.5416 -2.11363 19.316
rtibia 21.7913
rfoot -13.5512 -3.32457
rtoes 6.69604
lfemur -13.0151 7.23417 -17.8788
ltibia 20.2908
lfoot -11.3822 4.85279
ltoes -0.407917
111
root 0.457698 17.5304 -14.1644 6.22928 -0.851946 -1.53848
lowerback -1.6646 -0.291102 -0.0437052
upperback 3.38222 -0.446696 1.50813
thorax 4.43174 -0.252434 1.55652
lowerneck -13.9225 -0.31806 -2.6686
upperneck 28.4236 -0.461174 2.37227
head 11.5725 -0.20026 1.27176
rclavicle -8.69683e-015 9.54166e-015
rhumerus -22.1742 -18.5779 -80.0881
rradius 22.4659
rwrist 35.8295
rhand -17.5049 -26.0039
rfingers 7.12502
rthumb 8.74813 -55.8026
lclavicle -8.69683e-015 9.54166e-015
lhumerus -19.8558 5.46231 85.4569
lradius 17.1373
lwrist -2.15071
lhand -23.7094 -2.72076
lfingers 7.12502
lthumb 2.75801 27.2412
rfemur -13.553 -2.11649 19.3226
rtibia 21.8057
rfoot -13.5542 -3.33525
rtoes 6.68626
lfemur -13.0347 7.23236 -17.8734
ltibia 20.3133
lfoot -11.3866 4.84531
ltoes -0.416865
112
root 0.457294 17.53 -14.1657 6.22838 -0.838482 -1.54234
lowerback -1.6467 -0.29265 -0.0353129
upperback 3.38502 -0.449065 1.51052
thorax 4.4245 -0.253355 1.55421
lowerneck -13.9204 -0.314274 -2.6597
upperneck 28.4105 -0.452181 2.35303
head 11.5667 -0.197594 1.26419
rclavicle -5.06901e-015 6.36111e-015
rhumerus -22.1645 -18.5506 -80.1034
rradius 22.4782
rwrist 35.8096
rhand -17.5057 -26.0001
rfingers 7.12502
rthumb 8.74738 -55.7988
lclavicle -5.06901e-015 6.36111e-015
lhumerus -19.8441 5.44801 85.4624
lradius 17.1409
lwrist -2.13652
lhand -23.7062 -2.71413
lfingers 7.12502
lthumb 2.76109 27.2477
rfemur -13.563 -2.11933 19.3294
rtibia 21.8201
rfoot -13.5571 -3.34615
rtoes 6.68597
lfemur -13.0553 7.22889 -17.8679
ltibia 20.3388
lfoot -11.3907 4.83996
ltoes -0.441279
113
root 0.456916 17.5295 -14.167 6.22655 -0.824196 -1.54825
lowerback -1.62727 -0.294143 -0.0243242
upperback 3.38868 -0.451475 1.5134
thorax 4.41727 -0.254221 1.55095
lowerneck -13.9183 -0.309626 -2.64886
upperneck 28.3957 -0.442523 2.33402
head 11.5602 -0.194383 1.25645
rclavicle 2.43511e-015 1.74931e-014
rhumerus -22.1519 -18.5296 -80.1175
rradius 22.4865
rwrist 35.797
rhand -17.5045 -25.9946
rfingers 7.12502
rthumb 8.74849 -55.7933
lclavicle 2.43511e-015 1.74931e-014
lhumerus -19.8319 5.4282 85.4687
lradius 17.144
lwrist -2.1198
lhand -23.7052 -2.71615
lfingers 7.12502
lthumb 2.76206 27.2457
rfemur -13.5715 -2.1221 19.3382
rtibia 21.8345
rfoot -13.5608 -3.35611
rtoes 6.69734
lfemur -13.0763 7.22118 -17.8599
ltibia 20.3666
lfoot -11.395 4.83848
ltoes -0.470263
